<?xml version="1.0" encoding="utf-8"?>
<!-- Generator: Adobe Illustrator 19.0.0, SVG Export Plug-In . SVG Version: 6.00 Build 0)  -->
<svg version="1.1" id="Calque_1" xmlns="http://www.w3.org/2000/svg" xmlns:xlink="http://www.w3.org/1999/xlink" x="0px" y="0px"
	 viewBox="-255 347 100 100" style="enable-background:new -255 347 100 100;" xml:space="preserve">
<style type="text/css">
	.st0{opacity:0.9;}
</style>
<g id="XMLID_613_" class="st0">
	<path id="XMLID_628_" d="M-184.2,396l-0.7-0.7c0.2-1.1,0.4-2.3,0.5-3.4c0-0.2-0.1-0.5-0.2-0.6s-0.4-0.2-0.6-0.1
		c-0.9,0.3-2,0.6-2.9,0.8c0,0-5.9-5.7-7.8-7.8c-0.8-0.8-1.9-1.5-3.1-1.5h-3.4c-0.3,0-0.6,0.3-0.7,0.6c-0.1,0.8-0.9,1.6-2,1.6
		s-1.9-0.7-2-1.6c0-0.3-0.3-0.6-0.7-0.6h-3.4c-1.2,0-2.3,0.6-3,1.3l0,0c-2,2-7.9,8-7.9,8c-0.9-0.3-1.9-0.6-2.9-0.8
		c-0.2-0.1-0.5,0-0.6,0.1c-0.2,0.1-0.3,0.4-0.2,0.6c0.2,1.1,0.4,2.3,0.5,3.4l-0.8,0.8c-1.3,1.3-1.3,3.5,0,4.9c0.5,0.5,1,0.8,1.7,0.9
		c0.5,3,0.8,6,1.3,8.9c0,0.3,0.2,0.5,0.5,0.5c2.7,0.8,5.4,1.3,8.3,1.7v17.1c0,2.4,2,4.4,4.4,4.4c2.4,0,4.4-2,4.4-4.4v-16h0.4v16
		c0,2.4,2,4.4,4.4,4.4c2.4,0,4.4-2,4.4-4.4V413c2.8-0.4,5.5-0.9,8.3-1.7c0.3-0.1,0.4-0.3,0.5-0.5c0.5-3,0.9-6.1,1.3-9.1
		c0.6-0.2,1.1-0.5,1.6-0.9C-182.9,399.5-182.9,397.3-184.2,396L-184.2,396z M-204.9,412.4c-5.6,0-11.3-0.8-16.6-2.2
		c-0.8-4.9-1.4-9.7-2.2-14.5c2.6,0.8,5.4,1.4,8.1,1.9h0.1c0.3,0,0.6-0.2,0.7-0.6c0.1-0.4-0.2-0.7-0.5-0.8c-2.9-0.5-5.7-1.1-8.5-2.1
		c-0.1-0.6-0.2-1.1-0.3-1.6c6.2,1.9,12.7,2.9,19.2,2.9c5.4,0,10.7-0.7,15.9-2l-1.4,10.2c0,0.4,0.2,0.7,0.6,0.7h0.1
		c0.3,0,0.6-0.2,0.7-0.6l1.5-10.7c0.7-0.2,1.3-0.4,2.1-0.6c-0.7,4.8-1.4,9.7-2.2,14.5c-3,0.8-6.4,1.5-9.6,1.9
		c-0.4,0-0.6,0.4-0.6,0.7c0,0.3,0.3,0.6,0.7,0.6h0.1c3-0.4,6.2-0.9,9.2-1.8l-0.3,1.6C-193.8,411.7-199.3,412.4-204.9,412.4
		L-204.9,412.4z"/>
	<path id="XMLID_569_" d="M-201.9,390"/>
	<path id="XMLID_445_" d="M-211.5,376.1c0.2,1.7,0.9,3.3,2,4.4c0.2,0.3,0.5,0.5,0.8,0.7c0.3,0.3,0.7,0.5,1,0.7
		c0.8,0.4,1.7,0.7,2.6,0.7s1.8-0.3,2.6-0.7c0.4-0.2,0.7-0.4,1-0.7c0.3-0.2,0.5-0.4,0.8-0.7c1-1.1,1.8-2.6,2-4.4c0,0,2.1-1,2.1-2.3
		c0-0.8-0.4-1.4-0.8-1.9h-14.7c-0.5,0.4-0.8,1.1-0.8,1.9C-213.2,375-212.5,375.9-211.5,376.1L-211.5,376.1z"/>
	<path id="XMLID_440_" d="M-212.4,367.7l-0.2,0.5h-1.2v2.6h17.8v-2.6h-1.2l-0.2-0.5c-0.7-2.2-2.4-4.4-4.6-5.5v5.8
		c0,0.2-0.1,0.5-0.2,0.7c-0.3,0.6-0.8,0.9-1.5,0.9h-2.7c-0.6,0-1.1-0.3-1.4-0.8c-0.1-0.2-0.2-0.4-0.2-0.7c0-0.1,0-0.2,0-0.2v-5.8
		C-208,362.1-211.1,364.1-212.4,367.7z"/>
	<path id="XMLID_439_" d="M-205.7,368.3h1.7c0.2,0,0.4-0.2,0.5-0.5c0.1-0.2,0.1-0.3,0.1-0.4v-6.6c0-0.2,0-0.3-0.1-0.4
		c-0.1-0.4-0.4-0.8-0.8-0.8h-1.5c-0.3,0-0.6,0.4-0.6,0.8v0.1v6.9c0,0.2,0.1,0.4,0.1,0.5C-206.1,368.1-205.9,368.3-205.7,368.3
		L-205.7,368.3z"/>
	<path id="XMLID_438_" d="M-204.9,368.8"/>
</g>
</svg>
