<?xml version="1.0" encoding="utf-8"?>
<!-- Generator: Adobe Illustrator 20.1.0, SVG Export Plug-In . SVG Version: 6.00 Build 0)  -->
<svg version="1.1" id="Calque_1" xmlns="http://www.w3.org/2000/svg" xmlns:xlink="http://www.w3.org/1999/xlink" x="0px" y="0px"
	 viewBox="0 0 70 70" style="enable-background:new 0 0 70 70;" xml:space="preserve">
<style type="text/css">
	.st0{opacity:0.8;}
	.st1{fill:#FFFFFF;}
</style>
<g class="st0">
	<path class="st1" d="M45,55.8H25V41.3h20V55.8z M27,53.8h16V43.3H27V53.8z"/>
</g>
<g class="st0">
	<path class="st1" d="M45,28.7H25V14.2h20V28.7z M27,26.7h16V16.2H27V26.7z"/>
</g>
<g class="st0">
	<path class="st1" d="M50,47.7h-4v-7.5H24v7.5h-4c-3.3,0-6.5-3.2-6.5-6.5V28.7c0-3.3,3.2-6.5,6.5-6.5h4v7.5h22v-7.5h4
		c3.3,0,6.5,3.2,6.5,6.5v12.5C56.5,44.5,53.3,47.7,50,47.7z M49,44.7h1c1.7,0,3.5-1.8,3.5-3.5V28.7c0-1.7-1.8-3.5-3.5-3.5h-1v7.5H21
		v-7.5h-1c-1.7,0-3.5,1.8-3.5,3.5v12.5c0,1.7,1.8,3.5,3.5,3.5h1v-7.5h28V44.7z"/>
</g>
</svg>
