<?xml version="1.0" encoding="utf-8"?>
<!-- Generator: Adobe Illustrator 20.1.0, SVG Export Plug-In . SVG Version: 6.00 Build 0)  -->
<svg version="1.1" id="Calque_1" xmlns="http://www.w3.org/2000/svg" xmlns:xlink="http://www.w3.org/1999/xlink" x="0px" y="0px"
	 viewBox="0 0 70 70" style="enable-background:new 0 0 70 70;" xml:space="preserve">
<style type="text/css">
	.st0{opacity:0.8;enable-background:new    ;}
	.st1{fill:#FFFFFF;}
</style>
<g id="XMLID_2598_" class="st0">
	<path class="st1" d="M34.9,59c0,0-0.1,0-0.1,0c-1.1,0-2-0.7-2.4-1.7c-2-4.9-5-8.2-7.9-11.3c-3.4-3.7-6.7-7.3-7.6-13
		c-0.9-5.3,0.4-10.7,3.7-14.9c3.1-4.1,7.6-6.6,12.6-7c5.1-0.5,10.3,1.2,14.1,4.6c3.8,3.5,6,8.4,6,13.6c0,8-3.9,12.2-8,16.7
		c-2.9,3.2-5.8,6.4-7.9,11.4l0,0.1C37,58.4,36,59,34.9,59z M35.2,56.2C35.2,56.2,35.2,56.2,35.2,56.2C35.2,56.2,35.2,56.2,35.2,56.2
		z M35.1,14c-0.5,0-1,0-1.6,0.1l0,0c-4.1,0.4-7.9,2.5-10.5,5.9c-2.7,3.6-3.9,8.2-3.1,12.6c0.8,4.8,3.6,7.9,6.9,11.5
		c2.8,3.1,6,6.5,8.2,11.7c2.2-5.1,5.4-8.6,8.2-11.7c3.8-4.2,7.2-7.9,7.2-14.7c0-4.3-1.8-8.4-5-11.3C42.4,15.4,38.8,14,35.1,14z"/>
</g>
</svg>
