<?xml version="1.0" encoding="utf-8"?>
<!-- Generator: Adobe Illustrator 19.0.0, SVG Export Plug-In . SVG Version: 6.00 Build 0)  -->
<svg version="1.1" id="Calque_1" xmlns="http://www.w3.org/2000/svg" xmlns:xlink="http://www.w3.org/1999/xlink" x="0px" y="0px"
	 viewBox="-255 347 100 100" style="enable-background:new -255 347 100 100;" xml:space="preserve">
<style type="text/css">
	.st0{opacity:0.9;}
</style>
<g class="st0">
	<path d="M-170,369.6c-0.5-1-1.8-1.2-2.8-0.6l-10.8,6.7c-0.5,0.3-1,1-1,1.7v7l-6.1,1.9l-0.6-5.1c-0.1-2.9-1.9-5.2-4.5-6.3
		c-0.1,2.6-2.2,4.6-4.8,4.6h-11.4c-2.6,0-4.6-2-4.8-4.5c-2.5,1.1-4.3,3.5-4.3,6.4l-0.1,21.6c0,1.6,1.3,3,2.9,3l0,0
		c1.6,0,2.9-1.3,3-2.9l0.1-21.6c0-0.3,0.2-0.5,0.5-0.5c0.3,0,0.5,0.2,0.5,0.5V431c0,1.9,1.6,3.5,3.5,3.5c1.9,0,3.5-1.6,3.5-3.5
		c0-4.7,0-23.3,0-27.4c0-0.4,0.3-0.7,0.7-0.7s0.7,0.3,0.7,0.7c0,3.9,0,22.7,0,27.4c0,1.9,1.6,3.5,3.5,3.5s3.5-1.6,3.5-3.5l-0.1-49.3
		c0-0.3,0.2-0.6,0.5-0.6c0.3,0,0.6,0.2,0.6,0.5l0,0c0.1,0.5,1.2,9.2,1.2,9.2c0.1,0.9,0.6,1.6,1.3,2.1c0.7,0.4,1.6,0.6,2.5,0.3
		l7.7-2.5v4.2c0,1.1,0.9,2,2,2c1.1,0,2-0.9,2-2v-5.3l0.2-0.1c1.6-0.5,2.5-2.1,1.9-3.6c-0.3-1.1-1.2-1.8-2.1-2v-5.1l9.8-6.2
		C-169.7,371.8-169.4,370.5-170,369.6L-170,369.6z"/>
	<path d="M-211.9,376.7h11.4c1.1,0,2-0.9,2-2v-13.1c0-1.1-0.9-2-2-2h-11.4c-1.1,0-2,0.9-2,2v13.1
		C-214,375.8-213.1,376.7-211.9,376.7z M-210.3,364.6c0-0.5,0.4-1,1-1h6.2c0.5,0,1,0.4,1,1v2.5c0,0.5-0.4,1-1,1h-6.2
		c-0.5,0-1-0.4-1-1V364.6z"/>
</g>
</svg>
