<?xml version="1.0" encoding="utf-8"?>
<!-- Generator: Adobe Illustrator 20.1.0, SVG Export Plug-In . SVG Version: 6.00 Build 0)  -->
<svg version="1.1" id="Calque_1" xmlns="http://www.w3.org/2000/svg" xmlns:xlink="http://www.w3.org/1999/xlink" x="0px" y="0px"
	 viewBox="0 0 70 70" style="enable-background:new 0 0 70 70;" xml:space="preserve">
<style type="text/css">
	.st0{opacity:0.8;enable-background:new    ;}
	.st1{fill:#FFFFFF;}
</style>
<g class="st0">
	<path class="st1" d="M50.1,19.8H19.9c-2.7,0-4.9,2.2-4.9,4.9v20.7c0,2.7,2.2,4.9,4.9,4.9h30.2c2.7,0,4.9-2.2,4.9-4.9V24.8
		C55,22,52.8,19.8,50.1,19.8L50.1,19.8z M52.8,45.3c0,1.5-1.2,2.7-2.7,2.7H19.9c-1.5,0-2.7-1.2-2.7-2.7V24.6c0-1.5,1.2-2.7,2.7-2.7
		h30.2c1.5,0,2.7,1.2,2.7,2.7V45.3L52.8,45.3z"/>
	<path class="st1" d="M39.2,34.7l7.9-7.1c0.4-0.3,0.4-0.9,0.1-1.3c-0.3-0.4-0.9-0.4-1.3-0.1L35,36L32.9,34l0,0
		c-0.1-0.1-0.1-0.1-0.2-0.2l-8.7-7.8c-0.4-0.3-1-0.3-1.3,0.1c-0.3,0.4-0.3,1,0.1,1.3l8,7.1l-8,7.5c-0.3,0.3-0.4,0.9,0,1.3
		c0.2,0.2,0.4,0.3,0.6,0.3s0.4-0.1,0.6-0.2l8.1-7.6l2.2,1.9c0.2,0.2,0.4,0.2,0.6,0.2c0.2,0,0.4-0.1,0.6-0.2l2.3-2l8,7.7
		c0.2,0.2,0.4,0.2,0.6,0.2s0.5-0.1,0.6-0.2c0.3-0.3,0.3-1,0-1.3L39.2,34.7z"/>
</g>
</svg>
