<?xml version="1.0" encoding="utf-8"?>
<!-- Generator: Adobe Illustrator 19.0.0, SVG Export Plug-In . SVG Version: 6.00 Build 0)  -->
<svg version="1.1" id="Calque_1" xmlns="http://www.w3.org/2000/svg" xmlns:xlink="http://www.w3.org/1999/xlink" x="0px" y="0px"
	 viewBox="-255 347 100 100" style="enable-background:new -255 347 100 100;" xml:space="preserve">
<style type="text/css">
	.st0{opacity:0.9;}
</style>
<g id="XMLID_492_" class="st0">
	<path id="XMLID_512_" d="M-176.1,370.2h-26c-0.9,0-1.7,0.8-1.7,1.7v11.6l3-4.5c0.1-0.2,0.2-0.3,0.4-0.5v-4.9h22.6v31.7h-22.6v-10.8
		c-0.3,0.3-0.6,0.6-0.9,0.8l-0.9,0.6l-1.2,1.8c-0.1,0.2-0.2,0.3-0.4,0.5v9c0,0.9,0.8,1.7,1.7,1.7h26c0.9,0,1.7-0.8,1.7-1.7v-35
		C-174.4,371-175.1,370.2-176.1,370.2L-176.1,370.2z"/>
	<path id="XMLID_506_" d="M-196.3,380c-0.8-0.7-2-0.5-2.6,0.3c-1.2,1.9-4.3,6.3-5.6,8.2c-0.4,0-0.7,0.2-1,0.4l-5,3.1
		c0-1.6,0-2.9,0-4.6c0-3.2-2.7-6-6-6h-0.4c-0.6,1.2-4.1,8.6-4.5,9.7v-6.9l1-1.8c0.3-0.5-0.1-1-0.6-1h-4.2c-0.5,0-0.9,0.6-0.6,1
		l0.9,1.7v7c-3.1-6.6-1.4-3.1-4.5-9.7h-0.5c-3.2,0-5.9,2.7-5.9,6l-0.1,18.2c0,1.4,1.1,2.5,2.5,2.5l0,0c1.3,0,2.5-1.1,2.5-2.5
		l0.1-18.2c0-0.3,0.3-0.5,0.6-0.5c0.3,0,0.5,0.3,0.5,0.5v41.7c0,1.7,1.4,3,3.1,2.9c1.6-0.1,2.8-1.4,2.8-3v-23.1
		c0-0.3,0.2-0.6,0.5-0.7c0.4-0.1,0.8,0.2,0.8,0.7V429c0,1.6,1.2,3,2.8,3c1.7,0.1,3.1-1.3,3.1-2.9c-0.1-40-0.1-34.7-0.1-41.7
		c0-0.3,0.2-0.5,0.5-0.6c0.3,0,0.6,0.2,0.6,0.5c0,1.7,0,7.1,0,9.1c0,0.7,0.3,1.4,0.8,1.9c0.9,0.8,2.1,0.9,3,0.3l3.4-2.2
		c0.1,0.1,0.2,0.2,0.3,0.3c0.8,0.6,1.8,0.3,2.4-0.5l1.6-2.5l1.1-0.7c0.9-0.6,1.3-1.6,1.1-2.6c2.3-3.4,3.3-4.9,5.6-8.2
		C-195.6,381.6-195.6,380.6-196.3,380L-196.3,380z"/>
	<path id="XMLID_445_" d="M-227.9,375.1c0.1,1.3,0.7,2.6,1.6,3.5c0.1,0.2,0.4,0.4,0.6,0.5c0.2,0.2,0.5,0.4,0.8,0.5
		c0.7,0.3,1.3,0.5,2.1,0.5c0.7,0,1.4-0.2,2.1-0.5c0.3-0.1,0.5-0.3,0.8-0.5c0.2-0.1,0.4-0.3,0.6-0.5c0.8-0.9,1.4-2.1,1.6-3.5
		c0,0,1.6-0.8,1.6-1.8c0-0.6-0.3-1.1-0.7-1.5h-11.6c-0.4,0.3-0.7,0.9-0.7,1.5C-229.3,374.2-228.7,374.9-227.9,375.1L-227.9,375.1z"
		/>
	<path id="XMLID_440_" d="M-228.6,368.4l-0.1,0.4h-1v2.1h14v-2.1h-1l-0.1-0.4c-0.5-1.7-1.9-3.5-3.6-4.4v4.6c0,0.1-0.1,0.4-0.1,0.5
		c-0.2,0.4-0.7,0.7-1.2,0.7h-2.1c-0.4,0-0.9-0.2-1.1-0.6c-0.1-0.1-0.1-0.3-0.1-0.5c0-0.1,0-0.1,0-0.1v-4.6
		C-225.2,364.1-227.6,365.6-228.6,368.4z"/>
	<path id="XMLID_439_" d="M-223.4,368.9h1.3c0.2,0,0.3-0.1,0.4-0.4c0-0.1,0-0.2,0-0.4V363c0-0.1,0-0.2,0-0.4
		c-0.1-0.4-0.3-0.6-0.6-0.6h-1.2c-0.2,0-0.5,0.3-0.5,0.6v0.1v5.5c0,0.1,0,0.3,0.1,0.4C-223.7,368.8-223.5,368.9-223.4,368.9
		L-223.4,368.9z"/>
	<path id="XMLID_438_" d="M-222.7,369.3"/>
</g>
</svg>
