<?xml version="1.0" encoding="utf-8"?>
<!-- Generator: Adobe Illustrator 19.0.0, SVG Export Plug-In . SVG Version: 6.00 Build 0)  -->
<svg version="1.1" id="Calque_1" xmlns="http://www.w3.org/2000/svg" xmlns:xlink="http://www.w3.org/1999/xlink" x="0px" y="0px"
	 viewBox="-270 362 70 70" style="enable-background:new -270 362 70 70;" xml:space="preserve">
<style type="text/css">
	.st0{opacity:0.9;enable-background:new    ;}
	.st1{fill:#FFFFFF;}
</style>
<g class="st0">
	<path class="st1" d="M-215,401.3v14.8h-8.6v-13.8c0-3.5-1.2-5.8-4.3-5.8c-2.4,0-3.8,1.6-4.4,3.1c-0.2,0.6-0.3,1.3-0.3,2.1v14.4
		h-8.6c0,0,0.1-23.4,0-25.8h8.6v3.7c0,0,0,0.1,0,0.1h0V394c1.1-1.8,3.2-4.3,7.7-4.3C-219.2,389.7-215,393.4-215,401.3L-215,401.3z
		 M-250.1,377.9c-2.9,0-4.9,1.9-4.9,4.5c0,2.5,1.9,4.5,4.7,4.5h0.1c3,0,4.9-2,4.9-4.5C-245.4,379.8-247.2,377.9-250.1,377.9
		L-250.1,377.9z M-254.5,416.1h8.6v-25.8h-8.6V416.1z M-254.5,416.1"/>
</g>
</svg>
