<?xml version="1.0" encoding="utf-8"?>
<!-- Generator: Adobe Illustrator 20.1.0, SVG Export Plug-In . SVG Version: 6.00 Build 0)  -->
<svg version="1.1" id="Calque_1" xmlns="http://www.w3.org/2000/svg" xmlns:xlink="http://www.w3.org/1999/xlink" x="0px" y="0px"
	 viewBox="0 0 70 70" style="enable-background:new 0 0 70 70;" xml:space="preserve">
<style type="text/css">
	.st0{opacity:0.8;enable-background:new    ;}
	.st1{fill:#FFFFFF;}
</style>
<g class="st0">
	<path class="st1" d="M46.6,56.5c-3.2,0-11.8-1.1-21.9-11.2C16,36.6,12.7,30,13.6,22.7c0.1-0.9,0.3-1.8,0.7-2.9c0.4-1.1,1-2.2,1.7-3
		l1.7-1.9c1.9-1.9,5-1.9,6.8-0.1l6.2,6.2c1.8,1.9,1.7,4.9-0.1,6.7l-2.3,2.3c1,1.8,2.4,4.2,4.9,6.8c2.5,2.5,4.9,3.9,6.8,4.9l2.3-2.3
		c1.8-1.8,4.9-1.9,6.7-0.1l6.2,6.2c1.8,1.8,1.8,4.7,0.1,6.7l-0.1,0.1l-1.8,1.7c-0.9,0.8-1.9,1.2-2.9,1.7l-0.1,0.1
		c-1.1,0.4-2,0.6-2.9,0.7l-0.2,0C47,56.5,46.8,56.5,46.6,56.5z M21.2,16.5c-0.5,0-1,0.2-1.3,0.5l-1.7,1.8c-0.4,0.5-0.8,1.2-1.1,1.9
		c-0.3,0.9-0.5,1.6-0.5,2.3c-0.7,6.3,2.2,12.1,10.3,20.2C37,53.4,45.5,53.6,47,53.5l0,0c0.7-0.1,1.3-0.2,2.2-0.5
		c0.8-0.4,1.5-0.7,2.1-1.1l1.7-1.6c0.6-0.7,0.8-1.8,0-2.6l-6.2-6.2c-0.6-0.6-1.8-0.6-2.5,0.1l-3.9,3.9l-1.6-0.8
		c-2-1.1-4.9-2.7-7.9-5.7c-3-3-4.6-5.9-5.7-7.8l-0.8-1.6l3.9-3.9c0.7-0.7,0.7-1.8,0.1-2.5l-6.2-6.2C22,16.6,21.6,16.5,21.2,16.5z"/>
</g>
</svg>
