<?xml version="1.0" encoding="utf-8"?>
<!-- Generator: Adobe Illustrator 19.0.0, SVG Export Plug-In . SVG Version: 6.00 Build 0)  -->
<svg version="1.1" id="Calque_1" xmlns="http://www.w3.org/2000/svg" xmlns:xlink="http://www.w3.org/1999/xlink" x="0px" y="0px"
	 viewBox="-255 347 100 100" style="enable-background:new -255 347 100 100;" xml:space="preserve">
<style type="text/css">
	.st0{opacity:0.9;}
</style>
<g class="st0">
	<path d="M-233.1,409c-3.6,0-6.5,2.9-6.5,6.5s2.9,6.5,6.5,6.5c3.6,0,6.5-2.9,6.5-6.5S-229.5,409-233.1,409z M-233.1,418.8
		c-1.8,0-3.2-1.5-3.2-3.2s1.5-3.2,3.2-3.2c1.7,0,3.2,1.5,3.2,3.2C-229.8,417.3-231.3,418.8-233.1,418.8z M-183,402.7l-8.8,5.5
		c-0.2-0.4-0.3-0.8-0.3-1.2v-8.6c0-0.4,0.1-0.8,0.2-1.1L-183,402.7z M-190.7,395.8c0.5-0.3,1.1-0.6,1.8-0.6h15.9
		c0.6,0,1.1,0.2,1.5,0.4l-9.7,6L-190.7,395.8z M-179.5,402.7l9.2-5.7c0.2,0.4,0.3,0.9,0.3,1.3v8.6c0,0.5-0.1,1-0.4,1.4L-179.5,402.7
		z M-193.7,411.7h16.5v3.3H-193c-0.2-2.8-1.7-5.1-4-6.5l0,0l0,0v-0.1v-33.2h3.3V411.7L-193.7,411.7z M-171.7,409.7
		c-0.4,0.2-0.9,0.4-1.4,0.4H-189c-0.6,0-1.2-0.2-1.7-0.5l9.4-5.8L-171.7,409.7z M-183,386.1l-8.8,5.5c-0.2-0.4-0.3-0.8-0.3-1.2v-8.6
		c0-0.4,0.1-0.8,0.2-1.1L-183,386.1z M-190.7,379.2c0.5-0.3,1.1-0.6,1.8-0.6h15.9c0.6,0,1.1,0.2,1.5,0.4l-9.7,6L-190.7,379.2z
		 M-179.5,386.1l9.2-5.7c0.2,0.4,0.3,0.9,0.3,1.3v8.6c0,0.5-0.1,1-0.4,1.4L-179.5,386.1z M-171.7,393.1c-0.4,0.2-0.9,0.4-1.4,0.4
		H-189c-0.6,0-1.2-0.2-1.7-0.5l9.4-5.8L-171.7,393.1z M-214.2,374.7c-0.8-1.7-2.6-2.7-4.4-2.7h-10.7c-1.8,0-3.3,1.5-3.3,3.3v17.4
		h-3.3c-2.3,0-4.1,1.9-4.1,4.1v14.6c1.4-2.4,4-4,7-4c4.3,0,7.8,3.4,8.1,7.6h15.6c0.3-4.2,3.8-7.6,8.1-7.6c1.5,0,2.9,0.4,4.1,1.1
		v-0.1L-214.2,374.7z M-207.9,399.3h-18.7c-0.5,0-0.8-0.4-0.8-0.8v-20.6c0-0.5,0.4-0.8,0.8-0.8h8.1c0.3,0,0.6,0.2,0.7,0.4l10.6,20.6
		C-206.9,398.6-207.3,399.3-207.9,399.3z M-201.1,409c-3.6,0-6.5,2.9-6.5,6.5s2.9,6.5,6.5,6.5c3.6,0,6.5-2.9,6.5-6.5
		S-197.5,409-201.1,409z M-201.1,418.8c-1.8,0-3.2-1.5-3.2-3.2s1.5-3.2,3.2-3.2c1.7,0,3.2,1.5,3.2,3.2
		C-197.9,417.3-199.3,418.8-201.1,418.8z"/>
</g>
</svg>
