<?xml version="1.0" encoding="utf-8"?>
<!-- Generator: Adobe Illustrator 19.0.0, SVG Export Plug-In . SVG Version: 6.00 Build 0)  -->
<svg version="1.1" id="Calque_1" xmlns="http://www.w3.org/2000/svg" xmlns:xlink="http://www.w3.org/1999/xlink" x="0px" y="0px"
	 viewBox="-255 347 100 100" style="enable-background:new -255 347 100 100;" xml:space="preserve">
<style type="text/css">
	.st0{opacity:0.9;}
</style>
<g id="XMLID_530_" class="st0">
	<path id="XMLID_561_" d="M-226.5,383.1c0.1-0.1,0.2-0.1,0.3-0.2c0.1,0.1,0.1,0.2,0.2,0.2l6,6c0.4-0.5,0.9-0.7,1.5-0.7
		c0.2,0,0.4,0,0.6,0.1l0.7,0.2l0.5-1.6l-6.6-6.6c-0.1-0.1-0.2-0.2-0.3-0.2v-0.1c0-0.1,0-0.1,0.1-0.2c0-0.1,0-0.1,0.1-0.2
		c0-0.1,0-0.1,0.1-0.2c0-0.1,0.1-0.2,0.1-0.2l0.2-0.2l0.2-0.2c0.1-0.1,0.2-0.2,0.2-0.3c0.1-0.1,0.1-0.2,0.2-0.2
		c0.1-0.1,0.1-0.1,0.1-0.2c0.1-0.2,0.2-0.2,0.3-0.3l0.1-0.1c0.2-0.2,0.2-0.3,0.4-0.4c0.1-0.1,0.1-0.1,0.2-0.1
		c0.1-0.1,0.1-0.1,0.2-0.2l0.3-0.2l0,0c0.1-0.1,0.2-0.2,0.4-0.2c0.1,0,0.1-0.1,0.2-0.1c0.2-0.1,0.2-0.2,0.4-0.2
		c0.1,0,0.2-0.1,0.2-0.1c0.1,0,0.1,0,0.2-0.1c0.1,0,0.1,0,0.2-0.1l0.3-0.1c0.1,0,0.2,0,0.2-0.1c0.1,0,0.2-0.1,0.2-0.1l0.9-0.2
		c0.2,0,0.2-0.1,0.3-0.2c0.1-0.1,0.2-0.2,0.2-0.4c0-0.2-0.2-0.5-0.4-0.5l-0.9-0.2c-0.2-0.1-0.3-0.1-0.5-0.1c-0.1,0-0.2,0-0.2,0
		l-0.4-0.1c-0.1,0-0.2,0-0.3,0h-0.1c-0.1,0-0.2,0-0.2,0c-0.2,0-0.5,0-0.7,0h-0.2c-0.2,0-0.6,0.1-0.8,0.1l-0.5,0.1
		c-0.2,0-0.2,0.1-0.4,0.1l-0.2,0.1c-0.3,0.1-0.6,0.2-0.9,0.3h-0.1c-0.2,0.1-0.5,0.2-0.7,0.3l-0.2,0.1l0,0c-0.1,0.1-0.2,0.1-0.2,0.2
		c-0.2,0.1-0.4,0.2-0.6,0.4l-0.3,0.2c0,0,0,0-0.1,0l-0.3,0.2c-0.1,0.1-0.2,0.2-0.2,0.2c-0.6,0.1-1.1,0.4-1.5,0.8l-0.6,0.6
		c-0.3,0.3-0.6,0.7-0.9,1.3c-1-0.2-2.4,1.3-4.6,3.5l4.7,4.7C-228.3,386-226.2,384.1-226.5,383.1L-226.5,383.1z"/>
	<path id="XMLID_558_" d="M-189.5,382.8l3,0.6l3.1-3.9c0.6-0.7,1.5-1,2.4-0.8V377h-4.5v3.6h-4.8L-189.5,382.8z"/>
	<path id="XMLID_549_" d="M-216.4,383.7l0.9-3.1h-4L-216.4,383.7z"/>
	<path id="XMLID_534_" d="M-181.2,399.9v-11.5c-0.1,0.1-0.2,0.2-0.2,0.3c-1.3,1.6-2.9,2.7-4.7,3.3h0.6v7.9h-12l5.6-7.6
		c0.1-0.2,0.2-0.2,0.3-0.4c3.1,0.8,6.6-0.2,8.7-3c1.6-2,2.2-4.5,1.7-7c-0.1-0.3-0.2-0.5-0.6-0.6c-0.3-0.1-0.5,0-0.8,0.2l-3.6,4.6
		l-4.7-0.9l-2-4.4l3.6-4.6c0.2-0.2,0.2-0.6,0.1-0.8c-0.2-0.2-0.4-0.4-0.7-0.4c-2.5,0.1-4.9,1.3-6.4,3.2c-2.1,2.7-2.4,6.3-0.9,9.2
		c-0.1,0.1-0.2,0.2-0.3,0.4l-7.2,8.6l1.7,1.7c0.5,0.5,0.8,1,0.9,1.6h-0.8c-0.2-0.4-0.4-0.8-0.7-1.1l-10-10l-0.2,0.9l0.7,0.2
		c0.5,0.2,0.9,0.5,1.2,0.9s0.3,1,0.2,1.5c-0.1,0.2-0.2,0.6-0.4,0.7c0.1,0.5,0,0.9-0.2,1.4l-0.9,3.1l2.4,2.4h-4.1l1.7-6
		c0.2-0.5,0.2-1,0-1.5c0.2-0.2,0.5-0.3,0.5-0.6c0.2-0.5-0.2-1.2-0.7-1.3l-1.6-0.5l4.2-14.4l0.2,0.1l1.1-2.1l0.5-3.4l-1.8-0.6
		l-1.4,3.1l-0.2,2.4l0.2,0.1l-4.2,14.4l-1.6-0.5c-0.6-0.2-1.2,0.2-1.3,0.7c-0.1,0.2-0.1,0.6,0.1,0.8c-0.4,0.3-0.7,0.8-0.9,1.3
		l-2.4,8.1h-2.3V392h3l0.6-1.8c0.2-0.5,0.2-0.6,0.5-0.9l-4.8-4.9c-0.6,0.9-1.3,1.8-2.3,2.8l-1.3,1.3v11.3h-1.5v15.6c0,5,4,9,9,9
		h33.3c4.9,0,9-4,9-9v-15.6L-181.2,399.9L-181.2,399.9z M-216.2,394.3c0.2-0.6,0.8-0.9,1.4-0.8c0.6,0.2,0.9,0.8,0.8,1.4l-1.5,5h-2.4
		L-216.2,394.3z M-219.8,393.2c0.2-0.6,0.8-0.9,1.4-0.8c0.6,0.2,0.9,0.8,0.8,1.4l-1.8,6h-2.4L-219.8,393.2z"/>
	<path id="XMLID_531_" d="M-210.5,380.7l-1.7,5.8l5.6,5.6h3l4.9-5.9c-0.7-1.8-0.9-3.7-0.5-5.5H-210.5z"/>
</g>
</svg>
