<?xml version="1.0" encoding="utf-8"?>
<!-- Generator: Adobe Illustrator 19.0.0, SVG Export Plug-In . SVG Version: 6.00 Build 0)  -->
<svg version="1.1" id="Calque_1" xmlns="http://www.w3.org/2000/svg" xmlns:xlink="http://www.w3.org/1999/xlink" x="0px" y="0px"
	 viewBox="-270 362 70 70" style="enable-background:new -270 362 70 70;" xml:space="preserve">
<style type="text/css">
	.st0{opacity:0.9;}
	.st1{fill:#FFFFFF;}
</style>
<g id="XMLID_784_" class="st0">
	<path id="XMLID_873_" class="st1" d="M-260,397c-0.2-8.2,7-15.7,14.9-15.7c4.2-0.4,8.2,1.2,11.4,3.8c-1.2,1.6-2.6,2.8-4.2,4.2
		c-2.8-1.8-6-3-9.4-1.8c-5.2,1.6-8.4,7.6-6.4,12.7c1.6,5.4,8,8.2,13.1,6c2.6-0.8,4.4-3.4,5.2-6c-3,0-6,0-9,0c0-1.8,0-3.6,0-5.4
		c5,0,10.2,0,15.1,0c0.2,4.4-0.4,9-3.2,12.7c-3.8,5-11.2,6.4-16.9,4.6C-255.4,409.9-260,403.5-260,397z"/>
	<path id="XMLID_862_" class="st1" d="M-219.2,390.2c1.6,0,3,0,4.6,0c0,1.6,0,3,0,4.6c1.6,0,3,0,4.6,0c0,1.6,0,3,0,4.6
		c-1.6,0-3,0-4.6,0c0,1.6,0,3,0,4.6c-1.6,0-3,0-4.6,0c0-1.6,0-3,0-4.6c-1.6,0-3,0-4.6,0c0-1.6,0-3,0-4.6c1.6,0,3,0,4.6,0
		C-219.2,393.2-219.2,391.8-219.2,390.2z"/>
</g>
</svg>
