<?xml version="1.0" encoding="utf-8"?>
<!-- Generator: Adobe Illustrator 19.0.0, SVG Export Plug-In . SVG Version: 6.00 Build 0)  -->
<svg version="1.1" id="Calque_1" xmlns="http://www.w3.org/2000/svg" xmlns:xlink="http://www.w3.org/1999/xlink" x="0px" y="0px"
	 viewBox="-237 360.9 150 100" style="enable-background:new -237 360.9 150 100;" xml:space="preserve">
<style type="text/css">
	.st0{fill:#FFFFFF;}
	.st1{fill:#FCB813;}
	.st2{fill:url(#XMLID_2_);}
	.st3{fill:#EC1C24;}
	.st4{fill:#F16539;}
	.st5{fill:#B21217;}
	.st6{fill:#D71921;}
	.st7{fill:#F2704C;}
	.st8{fill:url(#XMLID_3_);}
	.st9{fill:url(#XMLID_4_);}
</style>
<g id="XMLID_386_">
	<path class="st0" d="M-89.5,450.8c-0.4-0.9-0.9-1.7-1.6-2.3c-0.7-0.7-1.4-1.2-2.3-1.6c-0.9-0.4-1.8-0.6-2.9-0.6h-30.2
		c-0.5,0-1-0.2-1.4-0.6c-0.4-0.4-0.6-0.9-0.6-1.4c0-0.6,0.2-1.1,0.6-1.4c0.4-0.4,0.9-0.6,1.4-0.6h33.2c0.7,0,1.3-0.2,1.9-0.8
		c0.5-0.5,0.8-1.1,0.8-1.9c0-0.7-0.3-1.3-0.8-1.9c-0.5-0.5-1.1-0.8-1.9-0.8h-33.1c-1,0-2,0.2-2.8,0.6c-0.9,0.4-1.6,0.9-2.3,1.6
		c-0.7,0.7-1.2,1.4-1.6,2.3c-0.4,0.9-0.6,1.8-0.6,2.8c0,1,0.2,2,0.6,2.8c0.4,0.9,0.9,1.6,1.6,2.3c0.7,0.7,1.4,1.2,2.3,1.6
		c0.9,0.4,1.8,0.6,2.8,0.6h30.3c0.5,0,1,0.2,1.4,0.6c0.4,0.4,0.6,0.9,0.6,1.5c0,0.5-0.2,1-0.6,1.4c-0.4,0.4-0.9,0.6-1.4,0.6h-43
		v-15.9c0-0.7-0.3-1.3-0.8-1.9c-0.5-0.5-1.1-0.8-1.9-0.8c-0.6,0-1.2,0.3-1.9,0.8c-2.4,2.1-4.4,3.7-6.1,4.9c-1.7,1.2-3.2,2-4.6,2.6
		c-1.4,0.6-2.7,0.9-3.9,1.1c-1.2,0.1-2.5,0.2-4,0.2c-1.4,0-2.7-0.1-4-0.2c-1.2-0.2-2.6-0.5-4-1.1c-1.4-0.6-2.9-1.5-4.6-2.6
		c-1.7-1.2-3.7-2.8-6-4.8c-0.3-0.2-0.6-0.4-0.9-0.5c-0.3-0.1-0.6-0.2-1-0.2c-0.7,0-1.3,0.3-1.9,0.8c-0.5,0.5-0.8,1.1-0.8,1.9v15.9
		h-38.7c-1.3,0-2.3-0.2-3.1-0.7c-0.8-0.5-1.4-1-1.9-1.7c-0.5-0.7-0.8-1.4-0.9-2.2c-0.2-0.8-0.2-1.5-0.2-2.2c0-0.7,0.1-1.4,0.2-2.2
		c0.2-0.8,0.5-1.5,0.9-2.2c0.5-0.7,1.1-1.2,1.9-1.7c0.8-0.5,1.8-0.7,3.1-0.7h30.7c0.7,0,1.3-0.2,1.9-0.8c0.5-0.5,0.8-1.1,0.8-1.9
		c0-0.7-0.3-1.3-0.8-1.9c-0.5-0.5-1.1-0.8-1.9-0.8H-225c-1.6,0-3,0.4-4.2,1.1c-1.2,0.7-2.3,1.7-3.2,2.8c-0.9,1.1-1.5,2.4-2,3.8
		c-0.5,1.4-0.7,2.8-0.7,4.2c0,1.3,0.2,2.7,0.7,4.1c0.4,1.4,1.1,2.7,1.9,3.9c0.8,1.1,1.8,2.1,3,2.8c1.2,0.7,2.5,1.1,4,1.1h42.8
		c0,0,0.1,0,0.1,0c0,0,0.1,0,0.1,0c0.7,0,1.3-0.3,1.9-0.8c0.5-0.5,0.8-1.1,0.8-1.9v-12.9c1.6,1.3,3.2,2.4,4.7,3.3
		c1.5,0.9,2.9,1.6,4.4,2.1c1.4,0.5,2.9,0.9,4.3,1.1c1.4,0.2,2.9,0.3,4.5,0.3c1.5,0,2.9-0.1,4.3-0.3c1.4-0.2,2.8-0.6,4.3-1.1
		c1.4-0.5,2.9-1.2,4.4-2.1c1.5-0.9,3.1-2,4.7-3.3v12.9c0,0.7,0.2,1.3,0.8,1.9c0.5,0.5,1.1,0.8,1.9,0.8c0,0,0.1,0,0.1,0
		c0,0,0.1,0,0.1,0h45.2c1,0,2-0.2,2.9-0.6c0.9-0.4,1.7-0.9,2.3-1.5c0.7-0.7,1.2-1.4,1.6-2.3c0.4-0.9,0.6-1.8,0.6-2.8
		C-89,452.7-89.2,451.7-89.5,450.8z"/>
	<g id="XMLID_387_">
		<polygon id="XMLID_416_" class="st0" points="-154.1,385.8 -115.1,424.8 -109.8,424.8 -154.1,380.4 -181.6,407.9 -176.2,407.9 		
			"/>
		<polygon id="XMLID_415_" class="st1" points="-96,424.8 -140.3,380.4 -154.1,380.4 -109.8,424.8 		"/>
		<path id="XMLID_414_" class="st0" d="M-157.6,376l-1.3,1.6l-5.3,5.3c-0.9-1.3-1.9-2.5-3.1-3.6c-11.7-11.7-30.7-11.7-42.5,0
			c-11.7,11.7-11.7,30.7,0,42.5c1.1,1.1,2.3,2.2,3.6,3.1l-5.3,5.3l-1.6,1.3c-0.4,0.3-1,0.3-1.3-0.1l-5-5c-0.3-0.3-0.4-0.9-0.1-1.3
			l2.1-2.5l-0.2-0.3c-1.7-2.3-3.1-4.7-4.2-7.3l-0.1-0.3l-3.2,0.5c-0.5,0.1-1-0.2-1.1-0.7l-1.9-6.8c-0.1-0.3,0-0.7,0.3-1
			c0.1-0.1,0.2-0.2,0.3-0.2l3.1-1.2l0-0.3c-0.4-2.9-0.4-5.8,0-8.6l0-0.3l-3.1-1.2c-0.5-0.2-0.7-0.7-0.6-1.2l1.8-6.8
			c0-0.2,0.1-0.3,0.2-0.4c0.2-0.2,0.6-0.3,0.9-0.3l3.2,0.5l0.1-0.3c1.1-2.7,2.6-5.2,4.3-7.5l0.2-0.3l-2.1-2.5
			c-0.3-0.4-0.3-1,0.1-1.3l5-5c0.3-0.3,0.9-0.4,1.3-0.1l2.5,2.1l0.3-0.2c2.3-1.7,4.7-3.1,7.3-4.2l0.3-0.1l-0.5-3.2
			c0-0.3,0.1-0.6,0.3-0.9c0.1-0.1,0.3-0.2,0.4-0.2l6.8-1.9c0.5-0.1,1,0.1,1.2,0.6l1.2,3.1l0.3,0c2.9-0.4,5.8-0.4,8.6,0l0.3,0
			l1.2-3.1c0-0.1,0.1-0.2,0.2-0.3c0.3-0.3,0.6-0.4,1-0.3l6.8,1.8c0.5,0.1,0.8,0.6,0.7,1.1l-0.5,3.2l0.3,0.1c2.7,1.1,5.2,2.6,7.5,4.3
			l0.3,0.2l2.5-2.1c0.4-0.3,1-0.3,1.3,0.1l5,5C-157.3,375-157.2,375.6-157.6,376z"/>
		<g id="XMLID_389_">
			
				<linearGradient id="XMLID_2_" gradientUnits="userSpaceOnUse" x1="12436.9834" y1="417.8094" x2="12481.4316" y2="392.1472" gradientTransform="matrix(1 0 0 1 -12644.1182 0)">
				<stop  offset="0.1212" style="stop-color:#C2151C"/>
				<stop  offset="0.1899" style="stop-color:#D2181F"/>
				<stop  offset="0.2887" style="stop-color:#E01A22"/>
				<stop  offset="0.4052" style="stop-color:#E91C23"/>
				<stop  offset="0.5818" style="stop-color:#EC1C24"/>
				<stop  offset="1" style="stop-color:#EE3B2D"/>
			</linearGradient>
			<path id="XMLID_413_" class="st2" d="M-210.7,404.5l-0.2,3.8c-3.2,9.1,24.5,13.1,36,16.4c3.8,1,10.5-0.8,15.4-2.8
				c3.8-1.4,6.3-3.2,8.5-6.5c0.8-1.2,0.4-2.8-0.6-3.8c-1.8-1.8-3.4-3.6-5.3-5.3c-0.2-0.4-0.2-0.4-0.4-0.8l-0.6-3.6l-2.2-2.6
				c-2.4-8.7-7.1-14.1-13.8-17.8c-2.2-1.4-4-3-6.7-4c-3.2-1-5.9-1.2-7.9-0.2c-1.2,0.4-2.2,1.4-3.4,2.2c-7.3,0.4-12.3,4-13.8,10.3
				c-3.6,4.6-3,9.9-3.6,13.5C-209.7,403.5-210.5,404.1-210.7,404.5L-210.7,404.5z"/>
			<polygon id="XMLID_412_" class="st3" points="-189.2,417.4 -188.4,413 -182.4,413.2 -181,417.8 			"/>
			<polygon id="XMLID_411_" class="st4" points="-181,411.4 -182.4,413.2 -181,417.8 -179.5,416.2 			"/>
			<polygon id="XMLID_410_" class="st4" points="-188.4,413 -188.4,411.4 -181,411.4 -182.4,413.2 			"/>
			<polygon id="XMLID_409_" class="st5" points="-189.9,415.2 -189.2,417.4 -188.4,413 -188.4,411.4 			"/>
			<polygon id="XMLID_408_" class="st6" points="-210.9,408.3 -208.9,411 -206.9,409.5 -207.1,405.5 -209.3,403.3 -210.7,404.5 			
				"/>
			<polygon id="XMLID_407_" class="st4" points="-208.9,406.9 -208.7,406.5 -208.3,406.3 -210.5,404.1 -210.7,404.5 -210.7,404.9 
							"/>
			<path id="XMLID_406_" class="st4" d="M-159.5,401.9h1.6l0.8,4c0,0.2,0,0.6,0,0.8l-2,0.4L-159.5,401.9z"/>
			<polygon id="XMLID_405_" class="st3" points="-159.5,401.9 -157.9,401.9 -160.1,399.2 			"/>
			<path id="XMLID_404_" class="st4" d="M-208.5,403.3c0.6,0.8,1.8,1.4,3.4,1.6c-0.6-4.6,0.4-8.9,2.8-12.5c-0.2-2.8,0.6-5.5,2.6-7.9
				c-1-0.2-2.4,1-3.2,1c0.6-1,1.4-1.8,2.6-2.4v-1.2c-2.6,1.4-4.9,4.6-5.5,7.9c0.8-1,1.6-1.8,2.8-2.6
				C-206.9,391.2-208.7,396.6-208.5,403.3L-208.5,403.3z"/>
			<path id="XMLID_403_" class="st7" d="M-172.1,415c2.2-0.2,4.9-1,7.9-2.4c-0.6-6.1-2.4-12.3-6.1-19c-0.8-3-2-5.9-3.4-8.7
				c-0.6-0.4-1.2-0.6-2.2-0.8c1.6,2,2.6,4.2,2.6,6.7c-1.4-0.8-3-1.4-4.9-1.6l-0.6,7.9C-174.3,401.3-172.1,407.3-172.1,415
				L-172.1,415z"/>
			
				<linearGradient id="XMLID_3_" gradientUnits="userSpaceOnUse" x1="12445.7881" y1="393.2581" x2="12466.6758" y2="381.1983" gradientTransform="matrix(1 0 0 1 -12644.1182 0)">
				<stop  offset="0.1515" style="stop-color:#C2151C"/>
				<stop  offset="1" style="stop-color:#EE3B2D"/>
			</linearGradient>
			<path id="XMLID_402_" class="st8" d="M-173.3,389.9c-0.2-10.1-24.3-12.1-29.5-4.4c0.8,0,1.4-0.6,2.2-0.8
				C-191.9,382.3-182.8,384.5-173.3,389.9L-173.3,389.9z"/>
			<path id="XMLID_401_" class="st5" d="M-191.3,379c3.4,0,6.7,0.4,9.9,0.8c-0.6-1.2-1.4-2.2-2.4-3.2
				C-187,376-189.5,377.2-191.3,379L-191.3,379z"/>
			<polygon id="XMLID_400_" class="st5" points="-188.4,411.4 -191.3,415.2 -189.9,415.2 			"/>
			<polygon id="XMLID_399_" class="st5" points="-191.3,415.2 -189.2,417.4 -189.9,415.2 			"/>
			<path id="XMLID_398_" class="st3" d="M-174.1,381.3c1.2,1.8,2.2,3.6,3,5.7l0,0l-1-3.8l0,0c1,0.6,2,1.2,3.2,1.8
				C-170.4,383.5-172.3,382.3-174.1,381.3L-174.1,381.3z"/>
			<polygon id="XMLID_397_" class="st5" points="-207.1,406.3 -205.6,410.4 -206.9,409.5 			"/>
			<path id="XMLID_396_" class="st5" d="M-208.9,411l3.2-0.6l-1.2-0.8C-207.7,409.9-208.3,410.6-208.9,411L-208.9,411z"/>
			<path id="XMLID_395_" class="st4" d="M-205.6,410.4l0.8,0.8l-3.2,3.2c-2.6-1.8-3.6-3.8-2.8-6.1l2,2.6L-205.6,410.4z"/>
			
				<linearGradient id="XMLID_4_" gradientUnits="userSpaceOnUse" x1="12436.0537" y1="416.4417" x2="12493.5967" y2="416.4417" gradientTransform="matrix(1 0 0 1 -12644.1182 0)">
				<stop  offset="0" style="stop-color:#C2151C"/>
				<stop  offset="0.2673" style="stop-color:#D2181F"/>
				<stop  offset="0.6061" style="stop-color:#EC1C24"/>
				<stop  offset="1" style="stop-color:#EE3B2D"/>
			</linearGradient>
			<path id="XMLID_394_" class="st9" d="M-204.8,411.2c3.4,2.4,7.9,3.8,13.6,4l2,2.2l8.3,0.4l1.4-1.6c12.3-1.6,19.6-4.2,20.4-8.1
				l3.8-0.2l4,4c1.2,1.2,0.8,2.8-1,4.8c-2.6,3.6-8.3,6.3-16.4,7.9c-2.8,0.4-5.5,0.4-7.9-0.4c-16.6-3.6-28.3-6.9-31.6-9.9
				L-204.8,411.2z"/>
			<path id="XMLID_393_" class="st7" d="M-171,414.8c1-0.2,2.2-0.6,3.4-1l6.7,8.7c-3,1.2-5.9,1.8-8.5,2.2L-171,414.8z"/>
			<polygon id="XMLID_391_" class="st4" points="-209.5,403.3 -209.3,403.3 -209.3,402.9 -206.9,405.1 -207.1,405.5 -207.3,405.5 
							"/>
		</g>
	</g>
</g>
</svg>
