<?xml version="1.0" encoding="utf-8"?>
<!-- Generator: Adobe Illustrator 19.0.0, SVG Export Plug-In . SVG Version: 6.00 Build 0)  -->
<svg version="1.1" id="Calque_1" xmlns="http://www.w3.org/2000/svg" xmlns:xlink="http://www.w3.org/1999/xlink" x="0px" y="0px"
	 viewBox="2 330.9 600 180" style="enable-background:new 2 330.9 600 180;" xml:space="preserve">
<style type="text/css">
	.st0{fill:#FFFFFF;}
</style>
<g id="XMLID_769_">
	<g id="XMLID_733_">
		<path id="XMLID_767_" class="st0" d="M38.1,368.6c-3.7,3.6-8.8,5.3-15.2,5.3c-3.3,0-6.2-0.5-8.8-1.4s-4.8-2.3-6.5-4.1
			c-1.8-1.8-3.2-4-4.1-6.6c-1-2.6-1.4-5.5-1.4-8.8s0.5-6.2,1.4-8.8c0.9-2.6,2.3-4.8,4.1-6.6c1.8-1.8,4-3.2,6.5-4.1
			c2.6-0.9,5.5-1.4,8.8-1.4c5.5,0,10,1.3,13.5,4l-2.3,3.1c-2.9-2.1-6.7-3.2-11.3-3.2c-5.6,0-9.8,1.4-12.7,4.4
			c-2.9,2.9-4.4,7.2-4.4,12.7s1.4,9.8,4.4,12.7c2.9,2.9,7.1,4.4,12.7,4.4c2.6,0,5-0.4,7.1-1.1s3.9-1.8,5.4-3.2L38.1,368.6z"/>
		<path id="XMLID_764_" class="st0" d="M65.3,373.9c-3.3,0-6.2-0.5-8.8-1.4s-4.8-2.3-6.6-4.1c-1.8-1.8-3.2-4-4.1-6.6
			c-1-2.6-1.4-5.5-1.4-8.8s0.5-6.2,1.4-8.8c0.9-2.6,2.3-4.8,4.1-6.6c1.8-1.8,4-3.2,6.6-4.1s5.5-1.4,8.8-1.4c3.3,0,6.2,0.5,8.8,1.4
			s4.8,2.3,6.6,4.1c1.8,1.8,3.2,4,4.1,6.6s1.4,5.5,1.4,8.8s-0.5,6.2-1.4,8.8c-1,2.6-2.3,4.8-4.1,6.6c-1.8,1.8-4,3.2-6.6,4.1
			C71.6,373.4,68.6,373.9,65.3,373.9z M65.3,335.9c-5.6,0-9.8,1.4-12.7,4.4c-2.9,2.9-4.4,7.2-4.4,12.7s1.5,9.8,4.4,12.7
			c2.9,2.9,7.1,4.4,12.7,4.4s9.8-1.5,12.7-4.4s4.4-7.2,4.4-12.7c0-5.6-1.5-9.8-4.4-12.7C75.1,337.4,70.9,335.9,65.3,335.9z"/>
		<path id="XMLID_762_" class="st0" d="M124.3,373.9c-0.7,0-1.2-0.3-1.5-0.8l-23.1-33v33.5h-3.8V334c0-0.4,0.1-0.8,0.4-1.1
			c0.2-0.3,0.6-0.6,0.9-0.7c0.4-0.1,0.8-0.1,1.2,0s0.7,0.4,0.9,0.7l23.2,33v-33.5h3.8V372c0,0.5-0.1,0.8-0.4,1.2
			c-0.2,0.3-0.6,0.6-1,0.7C124.8,373.9,124.6,373.9,124.3,373.9z"/>
		<path id="XMLID_760_" class="st0" d="M150.1,351.2c1.8,0.4,3.5,0.8,5.2,1.2c1.7,0.5,3.3,1.1,4.6,1.9c1.4,0.8,2.5,1.9,3.3,3.2
			c0.8,1.3,1.3,3,1.3,5.1c0,3.6-1.3,6.4-3.9,8.4c-2.6,2-6.3,3-11,3s-8.3-1-10.9-3s-3.9-4.8-3.9-8.4h3.8c0,1.7,0.4,3,1.1,4
			c0.8,1,1.7,1.7,2.8,2.3c1.1,0.5,2.3,0.9,3.6,1c1.3,0.2,2.4,0.3,3.5,0.3c1,0,2.2-0.1,3.5-0.3c1.3-0.2,2.5-0.5,3.6-1
			c1.1-0.6,2.1-1.3,2.8-2.3c0.8-1,1.2-2.3,1.2-4c0-1.1-0.2-2.1-0.5-2.9c-0.4-0.8-1-1.4-1.9-2c-0.9-0.5-2.1-1-3.5-1.5
			c-1.5-0.4-3.3-0.9-5.5-1.3c-1.8-0.3-3.5-0.8-5.2-1.2c-1.7-0.4-3.3-1.1-4.7-1.9s-2.4-1.8-3.3-3.2c-0.8-1.3-1.3-3-1.3-5.1
			c0-3.6,1.3-6.4,3.9-8.4s6.2-3,10.9-3s8.3,1,11,3c2.6,2,3.9,4.8,3.9,8.4h-3.8c0-1.7-0.4-3-1.2-4s-1.7-1.8-2.8-2.3s-2.3-0.9-3.6-1.1
			s-2.4-0.2-3.5-0.2c-1,0-2.2,0.1-3.5,0.2c-1.3,0.2-2.5,0.5-3.6,1.1c-1.1,0.5-2,1.3-2.8,2.3c-0.7,1-1.1,2.3-1.1,4
			c0,1.1,0.2,2.1,0.6,2.8c0.4,0.8,1,1.4,1.9,2c0.9,0.5,2.1,1.1,3.5,1.5C146.1,350.3,147.9,350.8,150.1,351.2z"/>
		<path id="XMLID_758_" class="st0" d="M200.6,332.5v3.8h-13v37.3h-3.8v-37.3h-13v-3.8H200.6z"/>
		<path id="XMLID_755_" class="st0" d="M238.9,373.6L225.6,357H213v16.6h-3.8v-39.1c0-0.5,0.2-1,0.6-1.4c0.4-0.4,0.8-0.6,1.4-0.6
			h17.6h0.1c1.6,0,3.2,0.4,4.6,1.1c1.4,0.6,2.7,1.5,3.8,2.6s1.9,2.4,2.6,3.9c0.6,1.5,0.9,3.1,0.9,4.7c0,1.5-0.3,3-0.8,4.3
			s-1.3,2.6-2.2,3.6c-0.9,1.1-2,2-3.3,2.7s-2.6,1.2-4.1,1.4l13.5,16.7L238.9,373.6L238.9,373.6z M213,353.2h15.5
			c1.1,0,2.2-0.2,3.2-0.7c1-0.4,1.9-1,2.7-1.8c0.8-0.7,1.4-1.7,1.8-2.7c0.4-1,0.7-2.1,0.7-3.2c0-1.2-0.2-2.3-0.7-3.3
			c-0.4-1-1-1.9-1.8-2.7c-0.8-0.7-1.7-1.3-2.7-1.8c-1-0.4-2.1-0.7-3.2-0.7H213V353.2z"/>
		<path id="XMLID_753_" class="st0" d="M279,332.5v30.1c0,3.6-1.3,6.4-3.9,8.4s-6.3,3-11,3s-8.3-1-10.9-3c-2.6-2-3.9-4.8-3.9-8.4
			v-30.1h3.8v30.1c0,1.7,0.4,3,1.1,4s1.7,1.7,2.8,2.3c1.1,0.5,2.3,0.9,3.6,1c1.3,0.2,2.4,0.3,3.5,0.3c1,0,2.2-0.1,3.5-0.3
			c1.3-0.2,2.5-0.5,3.6-1c1.1-0.6,2.1-1.3,2.8-2.3c0.8-1,1.2-2.3,1.2-4v-30.1H279z"/>
		<path id="XMLID_751_" class="st0" d="M322.2,368.6c-3.7,3.6-8.8,5.3-15.2,5.3c-3.3,0-6.2-0.5-8.8-1.4c-2.6-0.9-4.8-2.3-6.6-4.1
			c-1.8-1.8-3.2-4-4.1-6.6c-1-2.6-1.4-5.5-1.4-8.8s0.5-6.2,1.4-8.8c0.9-2.6,2.3-4.8,4.1-6.6c1.8-1.8,4-3.2,6.6-4.1s5.5-1.4,8.8-1.4
			c5.5,0,10,1.3,13.6,4l-2.3,3.1c-2.9-2.1-6.6-3.2-11.3-3.2c-5.6,0-9.8,1.4-12.7,4.4c-2.9,2.9-4.4,7.2-4.4,12.7s1.5,9.8,4.4,12.7
			c2.9,2.9,7.1,4.4,12.7,4.4c2.6,0,5-0.4,7.1-1.1s3.9-1.8,5.4-3.2L322.2,368.6z"/>
		<path id="XMLID_749_" class="st0" d="M358.4,332.5v3.8h-13v37.3h-3.8v-37.3h-13v-3.8H358.4z"/>
		<path id="XMLID_747_" class="st0" d="M371.9,332.5v41.1H368v-41.1H371.9z"/>
		<path id="XMLID_744_" class="st0" d="M402.2,373.9c-3.3,0-6.2-0.5-8.8-1.4s-4.8-2.3-6.6-4.1c-1.8-1.8-3.2-4-4.1-6.6
			c-1-2.6-1.4-5.5-1.4-8.8s0.5-6.2,1.4-8.8c0.9-2.6,2.3-4.8,4.1-6.6c1.8-1.8,4-3.2,6.6-4.1s5.5-1.4,8.8-1.4s6.2,0.5,8.8,1.4
			s4.8,2.3,6.6,4.1c1.8,1.8,3.2,4,4.1,6.6s1.4,5.5,1.4,8.8s-0.5,6.2-1.4,8.8c-1,2.6-2.3,4.8-4.1,6.6c-1.8,1.8-4,3.2-6.6,4.1
			S405.5,373.9,402.2,373.9z M402.2,335.9c-5.6,0-9.8,1.4-12.7,4.4c-2.9,2.9-4.4,7.2-4.4,12.7s1.5,9.8,4.4,12.7
			c2.9,2.9,7.2,4.4,12.7,4.4c5.6,0,9.8-1.5,12.7-4.4s4.4-7.2,4.4-12.7c0-5.6-1.5-9.8-4.4-12.7C412,337.4,407.7,335.9,402.2,335.9z"
			/>
		<path id="XMLID_742_" class="st0" d="M461.1,373.9c-0.7,0-1.2-0.3-1.5-0.8l-23.1-33v33.5h-3.8V334c0-0.4,0.1-0.8,0.3-1.1
			c0.2-0.3,0.6-0.6,1-0.7s0.8-0.1,1.2,0c0.4,0.1,0.7,0.4,0.9,0.7l23.2,33v-33.5h3.8V372c0,0.5-0.1,0.8-0.4,1.2
			c-0.2,0.3-0.6,0.6-0.9,0.7C461.6,373.9,461.4,373.9,461.1,373.9z"/>
		<path id="XMLID_739_" class="st0" d="M512.7,343.8c4.8,0,8.5,1.3,11.1,4s4,6.4,4,11v6.6c0,0.6-0.1,1.4-0.4,2.4c-0.3,1-1,1.9-2,2.8
			s-2.6,1.7-4.5,2.3c-2,0.6-4.7,1-8.1,1c-3.4,0-6.1-0.3-8.1-1c-2-0.6-3.5-1.4-4.5-2.3s-1.7-1.8-2-2.8s-0.4-1.8-0.4-2.4
			c0-2.2,0.3-4,1-5.3s1.6-2.2,2.8-2.9c1.2-0.6,2.5-1,4.2-1.2c1.6-0.2,3.3-0.3,5.1-0.3h12.8c-0.5-2.7-1.7-4.7-3.5-6.1
			s-4.3-2.1-7.4-2.1c-3.2,0-5.7,0.7-7.6,2.2l-2.4-3C505.3,344.8,508.6,343.8,512.7,343.8z M523.9,359.6h-11.2
			c-2.5,0-4.4,0.1-5.9,0.2s-2.6,0.4-3.4,0.8s-1.3,1-1.5,1.8c-0.2,0.7-0.4,1.8-0.4,3.1c0,0.8,0.3,1.5,1,2.1c0.6,0.6,1.5,1,2.6,1.4
			s2.3,0.7,3.6,0.8c1.4,0.2,2.7,0.2,4,0.2c1.4,0,2.7-0.1,4-0.2c1.3-0.2,2.5-0.4,3.6-0.8s1.9-0.8,2.6-1.4c0.6-0.6,1-1.3,1-2.1V359.6
			L523.9,359.6z"/>
		<path id="XMLID_737_" class="st0" d="M564.1,373.6h-3.8v-14.7c0-3.6-0.8-6.4-2.4-8.3c-1.6-1.9-4-2.9-7-2.9c-3.1,0-5.4,1-7,2.9
			s-2.4,4.7-2.4,8.3v14.7h-3.9v-14.7c0-4.7,1.2-8.4,3.5-11.1c2.3-2.6,5.6-4,9.8-4s7.4,1.3,9.8,4c2.3,2.7,3.5,6.4,3.5,11.1
			L564.1,373.6L564.1,373.6z"/>
		<path id="XMLID_734_" class="st0" d="M572,358.9c0-4.7,1.3-8.5,4-11.1c2.6-2.6,6.3-4,11.1-4c2.4,0,4.6,0.4,6.4,1.1
			c1.9,0.7,3.5,1.7,4.8,3.1v-17.1h3.8v28c0,4.7-1.3,8.4-3.9,11s-6.3,3.9-11,3.9s-8.4-1.3-11.1-3.9C573.3,367.3,572,363.6,572,358.9z
			 M575.8,358.9c0,3.6,1,6.4,2.9,8.3s4.7,2.9,8.3,2.9s6.4-1,8.3-2.9s2.9-4.7,2.9-8.3c0-3.7-0.9-6.4-2.9-8.3
			c-1.9-1.9-4.7-2.9-8.3-2.9s-6.4,0.9-8.3,2.9C576.8,352.4,575.8,355.2,575.8,358.9z"/>
	</g>
	<g id="XMLID_691_">
		<path id="XMLID_731_" class="st0" d="M35.2,430h-3.1v-26.5l-12.2,20.1c-0.2,0.2-0.3,0.4-0.6,0.5c-0.2,0.1-0.5,0.2-0.8,0.2
			c-0.6,0-1-0.3-1.3-0.7L5.1,403.5V430H2v-32.1c0-0.8,0.4-1.3,1.1-1.5c0.3-0.1,0.7-0.1,1,0s0.6,0.4,0.8,0.6l13.7,22.7L32.3,397
			c0.2-0.3,0.4-0.5,0.8-0.6c0.3-0.1,0.7-0.1,1,0s0.6,0.3,0.8,0.5c0.2,0.3,0.3,0.6,0.3,0.9L35.2,430L35.2,430z"/>
		<path id="XMLID_728_" class="st0" d="M69.5,421H50.2l-4.3,9h-3.5l16.1-32.7c0.3-0.6,0.8-0.9,1.4-0.9c0.6,0,1.1,0.3,1.4,0.9
			L77.5,430h-3.4L69.5,421z M68,417.9l-8.1-16.5l-8.1,16.5H68z"/>
		<path id="XMLID_726_" class="st0" d="M88.2,396.7V430h-3.1v-33.3H88.2z"/>
		<path id="XMLID_724_" class="st0" d="M121.6,430.2c-0.5,0-0.9-0.2-1.3-0.7l-18.7-26.7V430h-3.1v-32.1c0-0.3,0.1-0.6,0.3-0.9
			s0.4-0.5,0.8-0.5c0.3-0.1,0.6-0.1,1,0c0.3,0.1,0.6,0.3,0.7,0.6l18.8,26.7v-27.1h3.1v32c0,0.4-0.1,0.7-0.3,0.9
			c-0.2,0.3-0.5,0.5-0.8,0.6C122,430.2,121.8,430.2,121.6,430.2z"/>
		<path id="XMLID_722_" class="st0" d="M154.1,396.7v3.1h-10.5V430h-3.1v-30.2H130v-3.1L154.1,396.7L154.1,396.7z"/>
		<path id="XMLID_720_" class="st0" d="M163.3,399.7v10.4h14.6l-0.9,3.1h-13.7v13.6h17.9v3.1h-19.4c-0.4,0-0.8-0.2-1.1-0.5
			s-0.5-0.7-0.5-1.1v-30.2c0-0.4,0.2-0.7,0.5-1.1c0.3-0.3,0.7-0.4,1.1-0.4h19.4v3.1H163.3z"/>
		<path id="XMLID_718_" class="st0" d="M211.8,430.2c-0.5,0-1-0.2-1.3-0.7l-18.7-26.7V430h-3.1v-32.1c0-0.3,0.1-0.6,0.3-0.9
			s0.4-0.5,0.8-0.5c0.3-0.1,0.7-0.1,1,0s0.6,0.3,0.8,0.6l18.8,26.7v-27.1h3.1v32c0,0.4-0.1,0.7-0.3,0.9c-0.2,0.3-0.5,0.5-0.8,0.6
			C212.2,430.2,212,430.2,211.8,430.2z"/>
		<path id="XMLID_715_" class="st0" d="M247.4,421h-19.3l-4.3,9h-3.5l16.1-32.7c0.3-0.6,0.7-0.9,1.4-0.9c0.6,0,1.1,0.3,1.4,0.9
			l16.1,32.7h-3.4L247.4,421z M245.9,417.9l-8.1-16.5l-8.1,16.5H245.9z"/>
		<path id="XMLID_713_" class="st0" d="M286.1,430.2c-0.5,0-1-0.2-1.2-0.7l-18.7-26.7V430H263v-32.1c0-0.3,0.1-0.6,0.3-0.9
			c0.2-0.3,0.5-0.5,0.8-0.5c0.3-0.1,0.7-0.1,1,0s0.6,0.3,0.8,0.6l18.8,26.7v-27.1h3.1v32c0,0.4-0.1,0.7-0.3,0.9
			c-0.2,0.3-0.5,0.5-0.8,0.6C286.5,430.2,286.3,430.2,286.1,430.2z"/>
		<path id="XMLID_711_" class="st0" d="M323.8,425.9c-3,2.9-7.1,4.3-12.3,4.3c-2.7,0-5.1-0.4-7.1-1.2c-2.1-0.8-3.9-1.9-5.3-3.3
			c-1.5-1.5-2.6-3.2-3.3-5.3c-0.8-2.1-1.2-4.5-1.2-7.1c0-2.7,0.4-5,1.2-7.1c0.8-2.1,1.9-3.9,3.3-5.4c1.5-1.5,3.2-2.6,5.3-3.3
			c2.1-0.8,4.5-1.2,7.1-1.2c4.5,0,8.1,1.1,11,3.2l-1.9,2.5c-2.3-1.7-5.4-2.6-9.1-2.6c-4.5,0-7.9,1.2-10.3,3.6s-3.5,5.8-3.5,10.3
			s1.2,7.9,3.5,10.3c2.4,2.4,5.8,3.6,10.3,3.6c2.1,0,4.1-0.3,5.8-0.9c1.7-0.6,3.2-1.5,4.3-2.6L323.8,425.9z"/>
		<path id="XMLID_709_" class="st0" d="M333,399.7v10.4h14.6l-0.9,3.1H333v13.6h17.9v3.1h-19.4c-0.4,0-0.8-0.2-1.1-0.5
			s-0.5-0.7-0.5-1.1v-30.2c0-0.4,0.2-0.7,0.5-1.1c0.3-0.3,0.7-0.4,1.1-0.4h19.4v3.1H333z"/>
		<path id="XMLID_707_" class="st0" d="M389.5,411.8c1.4,0.3,2.8,0.6,4.2,1c1.4,0.4,2.6,0.9,3.8,1.5c1.1,0.6,2,1.5,2.7,2.6
			c0.7,1,1,2.4,1,4.1c0,2.9-1.1,5.2-3.2,6.8c-2.1,1.6-5.1,2.4-8.9,2.4s-6.8-0.8-8.9-2.4s-3.2-3.9-3.2-6.8h3.1c0,1.3,0.3,2.4,0.9,3.2
			c0.6,0.8,1.4,1.4,2.3,1.9s1.9,0.8,2.9,0.9s2,0.2,2.8,0.2s1.8-0.1,2.8-0.2s2-0.4,2.9-0.9c0.9-0.4,1.7-1.1,2.3-1.9
			c0.6-0.8,0.9-1.9,0.9-3.2c0-0.9-0.1-1.7-0.4-2.3c-0.3-0.6-0.8-1.2-1.5-1.6c-0.7-0.5-1.7-0.8-2.9-1.2c-1.2-0.4-2.7-0.7-4.5-1.1
			c-1.4-0.3-2.8-0.6-4.2-1s-2.7-0.9-3.8-1.5c-1.1-0.6-2-1.5-2.7-2.6c-0.7-1-1-2.4-1-4.1c0-2.9,1.1-5.2,3.2-6.8
			c2.1-1.6,5.1-2.5,8.9-2.5s6.7,0.8,8.9,2.5c2.1,1.6,3.2,3.9,3.2,6.8H398c0-1.3-0.3-2.4-0.9-3.2c-0.6-0.8-1.4-1.4-2.3-1.9
			c-0.9-0.4-1.9-0.7-2.9-0.9c-1-0.1-2-0.2-2.8-0.2s-1.8,0.1-2.8,0.2s-2,0.4-2.9,0.9c-0.9,0.4-1.7,1.1-2.3,1.9s-0.9,1.9-0.9,3.2
			c0,0.9,0.2,1.7,0.5,2.3c0.3,0.6,0.8,1.2,1.5,1.6c0.7,0.5,1.7,0.9,2.9,1.2C386.3,411.1,387.8,411.5,389.5,411.8z"/>
		<path id="XMLID_705_" class="st0" d="M410.3,399.7v10.4h14.6l-0.9,3.1h-13.7v13.6h17.9v3.1h-19.4c-0.4,0-0.8-0.2-1.1-0.5
			s-0.5-0.7-0.5-1.1v-30.2c0-0.4,0.2-0.7,0.5-1.1c0.3-0.3,0.7-0.4,1.1-0.4h19.4v3.1H410.3z"/>
		<path id="XMLID_702_" class="st0" d="M459,430l-10.8-13.4H438V430h-3.1v-31.7c0-0.4,0.1-0.8,0.5-1.1c0.3-0.3,0.7-0.5,1.1-0.5h14.2
			h0.1c1.3,0,2.6,0.3,3.8,0.8s2.2,1.3,3.1,2.1c0.9,0.9,1.6,1.9,2.1,3.1s0.8,2.5,0.8,3.8c0,1.2-0.2,2.4-0.6,3.5s-1,2.1-1.8,3
			s-1.6,1.6-2.6,2.2s-2.1,0.9-3.3,1.1L463,430H459z M438,413.4h12.5c0.9,0,1.8-0.2,2.6-0.5c0.8-0.4,1.6-0.8,2.2-1.5
			c0.6-0.6,1.1-1.3,1.5-2.2c0.4-0.8,0.5-1.7,0.5-2.6c0-1-0.2-1.8-0.5-2.7c-0.4-0.8-0.9-1.5-1.5-2.2c-0.6-0.6-1.4-1.1-2.2-1.5
			c-0.8-0.3-1.7-0.5-2.6-0.5H438V413.4z"/>
		<path id="XMLID_700_" class="st0" d="M482.4,430.2c-0.3,0-0.6-0.1-0.9-0.2c-0.3-0.2-0.4-0.4-0.6-0.6l-14.5-32.7h3.5l12.5,28.2
			l12.5-28.2h3.4l-14.5,32.7C483.5,429.9,483,430.2,482.4,430.2z"/>
		<path id="XMLID_698_" class="st0" d="M508.8,396.7V430h-3.1v-33.3H508.8z"/>
		<path id="XMLID_696_" class="st0" d="M545.9,425.9c-3,2.9-7.1,4.3-12.3,4.3c-2.7,0-5-0.4-7.1-1.2c-2.1-0.8-3.9-1.9-5.3-3.3
			c-1.5-1.5-2.6-3.2-3.3-5.3c-0.8-2.1-1.2-4.5-1.2-7.1c0-2.7,0.4-5,1.2-7.1s1.9-3.9,3.3-5.4c1.4-1.5,3.2-2.6,5.3-3.3
			c2.1-0.8,4.5-1.2,7.1-1.2c4.4,0,8.1,1.1,11,3.2l-1.9,2.5c-2.3-1.7-5.4-2.6-9.1-2.6c-4.5,0-7.9,1.2-10.3,3.6s-3.5,5.8-3.5,10.3
			s1.2,7.9,3.5,10.3c2.4,2.4,5.8,3.6,10.3,3.6c2.1,0,4.1-0.3,5.8-0.9s3.2-1.5,4.4-2.6L545.9,425.9z"/>
		<path id="XMLID_694_" class="st0" d="M555.1,399.7v10.4h14.6l-0.9,3.1h-13.7v13.6H573v3.1h-19.4c-0.4,0-0.8-0.2-1.1-0.5
			s-0.5-0.7-0.5-1.1v-30.2c0-0.4,0.2-0.7,0.5-1.1c0.3-0.3,0.7-0.4,1.1-0.4H573v3.1H555.1z"/>
		<path id="XMLID_692_" class="st0" d="M590.3,411.8c1.4,0.3,2.8,0.6,4.2,1s2.7,0.9,3.8,1.5s2,1.5,2.7,2.6c0.7,1,1,2.4,1,4.1
			c0,2.9-1.1,5.2-3.2,6.8c-2.1,1.6-5.1,2.4-8.9,2.4s-6.8-0.8-8.9-2.4c-2.1-1.6-3.1-3.9-3.1-6.8h3.1c0,1.3,0.3,2.4,0.9,3.2
			c0.6,0.8,1.4,1.4,2.3,1.9s1.9,0.8,2.9,0.9s2,0.2,2.8,0.2s1.8-0.1,2.8-0.2s2-0.4,2.9-0.9c0.9-0.4,1.7-1.1,2.3-1.9s0.9-1.9,0.9-3.2
			c0-0.9-0.1-1.7-0.4-2.3c-0.3-0.6-0.8-1.2-1.5-1.6c-0.7-0.5-1.7-0.8-2.9-1.2c-1.2-0.4-2.7-0.7-4.4-1.1c-1.4-0.3-2.8-0.6-4.2-1
			s-2.7-0.9-3.8-1.5s-2-1.5-2.7-2.6c-0.7-1-1-2.4-1-4.1c0-2.9,1-5.2,3.1-6.8c2.1-1.6,5.1-2.5,8.9-2.5s6.8,0.8,8.9,2.5
			c2.1,1.6,3.2,3.9,3.2,6.8h-3.1c0-1.3-0.3-2.4-0.9-3.2c-0.6-0.8-1.4-1.4-2.3-1.9c-0.9-0.4-1.9-0.7-2.9-0.9c-1-0.1-2-0.2-2.8-0.2
			s-1.8,0.1-2.8,0.2s-2,0.4-2.9,0.9c-0.9,0.4-1.7,1.1-2.3,1.9s-0.9,1.9-0.9,3.2c0,0.9,0.2,1.7,0.5,2.3c0.3,0.6,0.8,1.2,1.6,1.6
			c0.7,0.5,1.7,0.9,2.8,1.2C587.1,411.1,588.6,411.5,590.3,411.8z"/>
	</g>
	<g id="XMLID_634_">
		<path id="XMLID_686_" class="st0" d="M10.2,493.6c-1.8-0.7-3.3-1.6-4.5-2.9c-1.2-1.2-2.1-2.7-2.8-4.4c-0.6-1.7-0.9-3.6-0.9-5.7
			c0-2.3,0.4-4.4,1.1-6.3c0.8-1.9,1.8-3.5,3.2-4.8s3-2.4,4.8-3.1c1.9-0.7,3.9-1.1,6.1-1.1c1.9,0,3.5,0.1,5,0.2
			c1.4,0.2,3,0.4,4.7,0.7v23.5H34v4.9H16.4C14,494.6,12,494.3,10.2,493.6z M21.3,489.7v-19.4c-0.3-0.1-0.7-0.2-1.2-0.2
			c-0.5-0.1-0.9-0.1-1.4-0.1s-0.9,0-1.3-0.1c-0.4,0-0.7,0-1,0c-1.2,0-2.3,0.2-3.4,0.7s-2,1.2-2.7,2c-0.8,0.8-1.4,1.9-1.8,3
			c-0.4,1.2-0.7,2.4-0.7,3.9c0,3.4,0.8,5.9,2.3,7.7c1.6,1.7,3.9,2.6,6.9,2.6L21.3,489.7L21.3,489.7z M12.3,461c-1.1,0-2-0.4-2.7-1.1
			c-0.7-0.8-1.1-1.7-1.1-2.8c0-1.1,0.4-2,1.1-2.8c0.7-0.8,1.6-1.1,2.7-1.1s1.9,0.4,2.6,1.1c0.7,0.8,1.1,1.7,1.1,2.8
			c0,1.1-0.4,2-1.1,2.8C14.2,460.6,13.3,461,12.3,461z M21.7,461c-1.1,0-2-0.4-2.7-1.2c-0.7-0.8-1.1-1.7-1.1-2.8
			c0-1.1,0.4-2,1.1-2.7s1.6-1.1,2.7-1.1s1.9,0.4,2.6,1.1s1,1.7,1,2.7c0,1.1-0.3,2-1,2.8C23.7,460.6,22.8,461,21.7,461z"/>
		<path id="XMLID_683_" class="st0" d="M32.7,489.7h8.8v-23.5h5.6v28.4H32.7V489.7L32.7,489.7z M44.3,461c-1,0-1.9-0.4-2.6-1.1
			c-0.7-0.7-1-1.6-1-2.7c0-1,0.3-1.8,1-2.6c0.7-0.7,1.5-1.1,2.6-1.1s1.9,0.4,2.5,1.1s1,1.6,1,2.6s-0.3,1.9-1,2.7
			C46.2,460.7,45.4,461,44.3,461z"/>
		<path id="XMLID_681_" class="st0" d="M63.6,489.7h16.2v4.9H58v-40.9c-0.7-0.1-1.6-0.3-2.6-0.3c-1-0.1-1.9-0.2-2.8-0.3v-3.3
			c1.6-0.2,3.3-0.3,5.3-0.4s3.8-0.1,5.7,0L63.6,489.7L63.6,489.7z"/>
		<path id="XMLID_677_" class="st0" d="M78.5,489.7h8.8v-23.6h5.6v23.6h7.1v4.9H78.6L78.5,489.7L78.5,489.7z M83.5,507.4
			c-1.1,0-1.9-0.4-2.7-1.2c-0.7-0.8-1-1.7-1-2.8s0.3-2,1-2.7s1.6-1.2,2.7-1.2s2,0.4,2.7,1.2s1.1,1.7,1.1,2.7c0,1.1-0.4,2-1.1,2.8
			C85.4,507,84.5,507.4,83.5,507.4z M92.9,507.5c-1.1,0-2-0.4-2.7-1.2s-1.1-1.7-1.1-2.8s0.4-2,1.1-2.7c0.7-0.8,1.6-1.1,2.7-1.1
			s1.9,0.4,2.6,1.1s1,1.6,1,2.7s-0.3,2-1,2.8C94.9,507.1,94,507.5,92.9,507.5z"/>
		<path id="XMLID_674_" class="st0" d="M98.7,489.7h8.8v-23.6h5.6c0,2.3,0,4.4-0.1,6.1s-0.1,3.3-0.2,4.6c-0.1,1.3-0.2,2.3-0.3,3.2
			c-0.1,0.9-0.2,1.6-0.3,2.1c0.9-2,2.1-4,3.4-6c1.4-2,2.9-3.8,4.6-5.4s3.5-3,5.4-4s3.9-1.5,5.9-1.5c3.6,0,6.5,1.2,8.6,3.5
			c2.1,2.4,3.2,5.9,3.2,10.6v10.4h7v4.9H98.7V489.7z M137.3,489.7v-9.6c0-1.5-0.1-2.8-0.4-4c-0.3-1.2-0.6-2.3-1.2-3.2
			c-0.6-0.9-1.3-1.5-2.2-2s-2-0.7-3.2-0.7c-1.4,0-2.9,0.5-4.5,1.5c-1.6,0.9-3.2,2.2-4.8,4c-1.6,1.7-3.1,3.7-4.5,6.1s-2.6,5.1-3.5,8
			L137.3,489.7L137.3,489.7z"/>
		<path id="XMLID_672_" class="st0" d="M149,489.7h8.5v-40.4h5.6v45.3h-14v-4.9H149z"/>
		<path id="XMLID_670_" class="st0" d="M180.8,494.6h-5.6v-41c-0.7-0.1-1.6-0.2-2.6-0.3c-1-0.1-1.9-0.2-2.8-0.3v-3.3
			c1.6-0.2,3.3-0.3,5.3-0.4s3.8-0.1,5.7,0C180.8,449.3,180.8,494.6,180.8,494.6z"/>
		<path id="XMLID_667_" class="st0" d="M209.8,510c-1.2,0-2.5-0.1-4-0.2s-2.7-0.2-3.7-0.4l-0.4-6.1c1.4,0.3,2.8,0.6,4.3,0.8
			c1.5,0.3,2.9,0.4,4.4,0.4c7.7,0,11.7-3.3,11.8-9.9h-5.1c-2.6,0-4.8-0.4-6.6-1.2c-1.8-0.8-3.3-1.9-4.4-3.2c-1.1-1.3-2-2.8-2.5-4.4
			c-0.5-1.7-0.8-3.4-0.8-5.2c0-2.1,0.3-4,1-5.9s1.7-3.5,3-4.9s2.9-2.5,4.7-3.4c1.9-0.8,4-1.2,6.4-1.2c1.8,0,3.5,0.1,5,0.2
			c1.5,0.2,3.1,0.4,4.8,0.7v27.6c0,1.8-0.3,3.7-0.8,5.6s-1.5,3.6-2.9,5.3c-1.4,1.6-3.2,2.9-5.5,3.9C216.2,509.5,213.3,510,209.8,510
			z M222.1,489.7v-19.4c-0.3-0.1-0.7-0.2-1.2-0.2c-0.5-0.1-0.9-0.1-1.4-0.1s-0.9,0-1.3-0.1c-0.4,0-0.7,0-1,0c-0.9,0-1.9,0.2-2.9,0.6
			s-2,1-2.8,1.8s-1.5,1.8-2.1,3s-0.8,2.6-0.8,4.2c0,3.4,0.8,6,2.4,7.7s3.9,2.6,6.8,2.6L222.1,489.7L222.1,489.7z"/>
		<path id="XMLID_665_" class="st0" d="M246.8,489.7c0.4,0,1,0,1.8,0c0.7,0,1.5,0,2.3,0.1s1.6,0.1,2.4,0.2c0.8,0.1,1.4,0.2,2,0.4
			c-2-1.4-3-3.5-3-6.1c0-1.3,0.3-2.6,0.9-3.7c0.6-1.2,1.4-2.2,2.4-3.1c1-0.9,2.2-1.6,3.7-2.1c1.4-0.5,3-0.8,4.7-0.8
			c0.9,0,1.9,0,3.1,0.1s2.3,0.3,3.5,0.5l-1,4.8c-2-0.4-4-0.6-5.9-0.6c-2,0-3.4,0.5-4.2,1.3c-0.9,0.9-1.3,2.1-1.3,3.7
			c0,1.5,0.6,2.8,1.9,3.8s3.2,1.5,5.9,1.5h5.9v4.8h-25L246.8,489.7L246.8,489.7z"/>
		<path id="XMLID_663_" class="st0" d="M286.3,489.7h7.1v4.9h-12.6v-40.9c-0.7-0.1-1.6-0.3-2.6-0.3c-1-0.1-1.9-0.2-2.8-0.3v-3.3
			c1.6-0.2,3.3-0.3,5.3-0.4s3.8-0.1,5.7,0v40.3L286.3,489.7L286.3,489.7z"/>
		<path id="XMLID_658_" class="st0" d="M323.8,493.4c-1.4-0.8-2.4-2.1-3-3.8c-0.7,1.7-1.8,3.1-3.4,4.1c-1.5,1-3.5,1.5-6.1,1.5
			c-1.6,0-3.2-0.5-4.7-1.4s-2.6-2.3-3.3-4.2c-0.9,1.8-2.2,3.1-3.7,3.8s-3.1,1.1-4.6,1.1h-2.8v-4.9h2.2c2.2,0,4-0.8,5.3-2.5
			c1.3-1.6,2-4.1,2-7.3V466h5.6v16.2c0,2.8,0.5,4.9,1.5,6c1,1.2,2.4,1.8,4.1,1.8c2,0,3.5-0.9,4.6-2.6c1-1.7,1.6-4.7,1.6-9v-12.3h5.6
			v18.7c0,1.5,0.5,2.7,1.5,3.6c1,0.8,2.3,1.3,3.8,1.3h5.7v-10.9c0-3-0.1-5.6-0.3-8s-0.5-4.6-0.8-6.6l5.7-1.1
			c0.3,1.9,0.6,4.1,0.8,6.7c0.2,2.6,0.3,5.2,0.3,7.9v12h7.1v4.9h-19.1C327.1,494.6,325.2,494.2,323.8,493.4z M316.6,461.1
			c-0.9,0-1.7-0.3-2.4-1c-0.6-0.7-1-1.5-1-2.5c0-0.9,0.3-1.8,1-2.5c0.6-0.7,1.4-1,2.4-1c0.9,0,1.7,0.3,2.4,1c0.6,0.7,1,1.5,1,2.5
			s-0.3,1.8-1,2.5C318.4,460.8,317.6,461.1,316.6,461.1z M321,454.2c-0.9,0-1.6-0.3-2.1-0.9s-0.8-1.4-0.8-2.2c0-0.8,0.3-1.5,0.8-2.1
			c0.6-0.6,1.3-0.9,2.1-0.9c0.9,0,1.6,0.3,2.1,0.9s0.8,1.3,0.8,2.1c0,0.9-0.3,1.6-0.8,2.2C322.6,453.8,321.9,454.2,321,454.2z
			 M325.1,461.2c-0.9,0-1.8-0.3-2.4-1.1c-0.7-0.7-1-1.5-1-2.5c0-0.9,0.3-1.8,1-2.4c0.6-0.7,1.5-1,2.4-1c1,0,1.7,0.3,2.4,1
			c0.6,0.7,0.9,1.5,0.9,2.4c0,1-0.3,1.9-0.9,2.5C326.8,460.9,326,461.2,325.1,461.2z"/>
		<path id="XMLID_655_" class="st0" d="M347,489.7h8.8v-23.5h5.6v28.4H347V489.7z M358.6,461c-1,0-1.9-0.4-2.6-1.1s-1-1.6-1-2.7
			c0-1,0.3-1.8,1-2.6c0.7-0.7,1.5-1.1,2.6-1.1c1,0,1.9,0.4,2.5,1.1s1,1.6,1,2.6s-0.3,1.9-1,2.7S359.6,461,358.6,461z"/>
		<path id="XMLID_651_" class="st0" d="M379,483.6l-5.6,1.3v-31.7c-0.7-0.1-1.6-0.3-2.6-0.3c-1-0.1-1.9-0.2-2.8-0.3v-3.3
			c1.6-0.2,3.3-0.3,5.3-0.4c1.9-0.1,3.8-0.1,5.7,0V483.6L379,483.6z M379.2,495.2c-1.7,0-3.4-0.1-5-0.4c-1.6-0.2-3.1-0.5-4.4-0.8
			l0.7-6.2c1.4,0.6,2.9,1,4.5,1.3s3.2,0.5,4.6,0.5c2,0,3.6-0.2,4.9-0.6s2.4-0.9,3.2-1.6c0.8-0.7,1.4-1.6,1.7-2.6s0.5-2.2,0.5-3.4
			v-32.1h5.6v31.5c0,2.1-0.3,4.1-0.8,5.8c-0.6,1.7-1.5,3.3-2.8,4.6s-2.9,2.3-5,3C384.8,494.8,382.3,495.2,379.2,495.2z M380.9,503.1
			c-0.4,0-0.7-0.1-1.1-0.1c-0.3,0-0.7,0-1,0c-0.7,0-1.3,0.2-1.7,0.5c-0.4,0.3-0.6,0.9-0.6,1.5s0.2,1.2,0.7,1.7s1.4,0.7,2.5,0.7h2.6
			v3.5h-12.2v-3.5c0.5,0,1.1,0,2,0s1.6,0.2,2.2,0.4c-0.5-0.4-0.9-0.8-1.1-1.3s-0.4-1.1-0.4-1.9c0-1.5,0.6-2.6,1.7-3.4
			c1.1-0.9,2.5-1.3,4.3-1.3c0.4,0,0.8,0,1.3,0.1c0.5,0,1,0.1,1.5,0.2L380.9,503.1z"/>
		<path id="XMLID_649_" class="st0" d="M412.6,494.6H407v-41c-0.7-0.1-1.6-0.2-2.5-0.3c-1-0.1-1.9-0.2-2.8-0.3v-3.3
			c1.6-0.2,3.3-0.3,5.3-0.4s3.8-0.1,5.6,0V494.6z"/>
		<path id="XMLID_645_" class="st0" d="M446,493.3c-2.9-0.9-5.3-2.2-7.2-3.8c-1.8-1.6-3.2-3.6-4-5.8c-0.8-2.3-1.3-4.8-1.3-7.6
			c0-1.3,0.1-2.8,0.4-4.4c0.2-1.6,0.5-3.1,0.9-4.4l6.1-1.2c-0.5,1.6-0.8,3.1-1.1,4.6c-0.2,1.4-0.4,3.1-0.4,4.8
			c0,2.1,0.3,4.1,0.8,5.8c0.5,1.7,1.5,3.3,2.9,4.5c1.4,1.3,3.3,2.3,5.7,3s5.4,1.1,9.1,1.1H468v-23.5h5.6v28.4h-16.8
			C452.5,494.6,448.9,494.2,446,493.3z M451.3,463.7c-1.1,0-2-0.4-2.7-1.2c-0.7-0.7-1.1-1.7-1.1-2.7s0.4-2,1.1-2.8
			c0.7-0.7,1.6-1.2,2.7-1.2s2,0.4,2.6,1.2c0.7,0.8,1.1,1.7,1.1,2.8s-0.4,2-1.1,2.7C453.3,463.4,452.4,463.7,451.3,463.7z
			 M460.8,463.8c-1.1,0-2-0.4-2.7-1.2c-0.7-0.8-1.1-1.7-1.1-2.8s0.4-2,1.1-2.7c0.7-0.8,1.6-1.1,2.7-1.1s1.9,0.4,2.6,1.1s1,1.6,1,2.7
			s-0.3,2-1,2.8C462.7,463.4,461.9,463.8,460.8,463.8z"/>
		<path id="XMLID_643_" class="st0" d="M490,489.7h16.2v4.9h-21.8v-40.9c-0.7-0.1-1.6-0.3-2.6-0.3c-1-0.1-1.9-0.2-2.8-0.3v-3.3
			c1.6-0.2,3.3-0.3,5.3-0.4c1.9-0.1,3.8-0.1,5.6,0L490,489.7L490,489.7L490,489.7z"/>
		<path id="XMLID_640_" class="st0" d="M505,489.7h2c0.8,0,1.5-0.1,2.3-0.4c0.7-0.3,1.4-0.7,2-1.3s1-1.5,1.4-2.6
			c0.3-1.1,0.5-2.4,0.5-4.1c0-2.7,0.4-5.1,1-7.1c0.7-2,1.6-3.6,2.9-5c1.2-1.3,2.7-2.3,4.4-3s3.6-1,5.7-1c1.8,0,3.5,0.3,4.9,0.8
			c1.5,0.5,2.7,1.4,3.7,2.6s1.8,2.7,2.4,4.5c0.5,1.8,0.8,4,0.8,6.6v14.9h-11.2c-3.5,0-6.2-0.5-8.1-1.7c-1.9-1.1-3.4-2.5-4.4-4.2
			c-0.6,1.7-1.6,3.2-3.1,4.2c-1.5,1.1-3.5,1.7-6,1.7H505V489.7z M533.5,489.7v-11.1c0-1.2-0.2-2.3-0.5-3.4s-0.8-2-1.4-2.8
			s-1.3-1.5-2.2-1.9c-0.9-0.5-1.9-0.7-3.1-0.7c-1.3,0-2.4,0.2-3.4,0.7c-0.9,0.5-1.7,1.2-2.3,2c-0.6,0.9-1,1.9-1.3,3
			c-0.3,1.2-0.4,2.4-0.4,3.8c0,3.5,0.8,6.2,2.4,7.8c1.6,1.6,4.1,2.5,7.4,2.5L533.5,489.7L533.5,489.7z"/>
		<path id="XMLID_638_" class="st0" d="M544,489.7h19.6c0-5.4-1.3-9.7-3.9-12.9c-2.6-3.2-6.7-5.6-12.2-7.2l0.5-5.9
			c3.1,0.7,6,1.7,8.6,3.1s4.8,3.1,6.7,5.2s3.3,4.4,4.3,7.1s1.5,5.7,1.5,9v1.7h7v4.9H544V489.7z"/>
		<path id="XMLID_635_" class="st0" d="M573.7,489.7h22.7v-7.1c0-4.2-1.1-7.2-3.2-8.9c-2.2-1.8-5.4-2.7-9.7-2.7
			c-1.2,0-2.2,0-3.2,0.1c-1,0-1.8,0.1-2.5,0.2l0.6-4.9c0.7-0.1,1.5-0.2,2.4-0.2s2,0,3.3,0c2.2,0,4.4,0.2,6.6,0.6
			c2.1,0.4,4,1.2,5.7,2.4c1.7,1.1,3,2.7,4.1,4.6c1,2,1.5,4.5,1.5,7.5v13.4h-28.3L573.7,489.7L573.7,489.7z M586.4,461
			c-1,0-1.9-0.4-2.6-1.1c-0.7-0.7-1-1.6-1-2.7c0-1,0.4-1.8,1-2.6c0.7-0.7,1.5-1.1,2.6-1.1c1,0,1.9,0.4,2.5,1.1s0.9,1.6,0.9,2.6
			s-0.3,1.9-0.9,2.7C588.2,460.7,587.4,461,586.4,461z"/>
	</g>
</g>
</svg>
